<svg id="Filled_outline" height="512" viewBox="0 0 64 64" width="512" xmlns="http://www.w3.org/2000/svg" data-name="Filled outline"><path d="m9 31h46a0 0 0 0 1 0 0v18a2 2 0 0 1 -2 2h-42a2 2 0 0 1 -2-2v-18a0 0 0 0 1 0 0z" fill="#e65d52"/><path d="m4 31h5a0 0 0 0 1 0 0v4a0 0 0 0 1 0 0h-5a1 1 0 0 1 -1-1v-2a1 1 0 0 1 1-1z" fill="#cc9453"/><path d="m56 31h5a0 0 0 0 1 0 0v4a0 0 0 0 1 0 0h-5a1 1 0 0 1 -1-1v-2a1 1 0 0 1 1-1z" fill="#cc9453" transform="matrix(-1 0 0 -1 116 66)"/><g fill="#e2e2e2"><path d="m48 19h9a0 0 0 0 1 0 0v2a2 2 0 0 1 -2 2h-5a2 2 0 0 1 -2-2v-2a0 0 0 0 1 0 0z"/><path d="m48 23h9a0 0 0 0 1 0 0v2a2 2 0 0 1 -2 2h-5a2 2 0 0 1 -2-2v-2a0 0 0 0 1 0 0z"/><path d="m48 27h9a0 0 0 0 1 0 0v2a2 2 0 0 1 -2 2h-5a2 2 0 0 1 -2-2v-2a0 0 0 0 1 0 0z"/></g><path d="m30 9h4a6 6 0 0 1 6 6v4a0 0 0 0 1 0 0h-16a0 0 0 0 1 0 0v-4a6 6 0 0 1 6-6z" fill="#e6c872"/><path d="m23 19h18a1 1 0 0 1 1 1v5a0 0 0 0 1 0 0h-20a0 0 0 0 1 0 0v-5a1 1 0 0 1 1-1z" fill="#ffde7e"/><path d="m28 25h-6v6h4z" fill="#f2d378"/><path d="m36 25h6v6h-4z" fill="#f2d378"/><path d="m6 22h10a0 0 0 0 1 0 0v7a2 2 0 0 1 -2 2h-6a2 2 0 0 1 -2-2v-7a0 0 0 0 1 0 0z" fill="#e2e2e2"/><path d="m60 30h-2.18427a2.96457 2.96457 0 0 0 .18427-1v-1h2v-2h-2.18427a2.96457 2.96457 0 0 0 .18427-1v-1h2v-2h-2.18427a2.96457 2.96457 0 0 0 .18427-1v-1h2v-2h-15v2h2v1a2.96485 2.96485 0 0 0 .18433 1h-2.18433v2h2v1a2.96485 2.96485 0 0 0 .18433 1h-2.18433v2h2v1a2.96485 2.96485 0 0 0 .18433 1h-4.18433v-10a2.00229 2.00229 0 0 0 -2-2v-3a7.00818 7.00818 0 0 0 -7-7h-1v-2h-2v2h-1a7.00818 7.00818 0 0 0 -7 7v3a2.00229 2.00229 0 0 0 -2 2v10h-4.18427a2.96457 2.96457 0 0 0 .18427-1v-6h2v-2h-10.27911l-1.3161-3.94922a2.99737 2.99737 0 0 0 -2.8462-2.05078h-1.55859v2h1.55859a.99822.99822 0 0 1 .94873.68359l1.10523 3.31641h-3.61255v2h2v6a2.96485 2.96485 0 0 0 .18433 1h-1.18433a2.00229 2.00229 0 0 0 -2 2v2a2.00229 2.00229 0 0 0 2 2h4v13a3.00328 3.00328 0 0 0 3 3h2v6h2v-6h34v6h2v-6h2a3.00328 3.00328 0 0 0 3-3v-13h4a2.00229 2.00229 0 0 0 2-2v-2a2.00229 2.00229 0 0 0 -2-2zm-11-9v-1h7v1a1.001 1.001 0 0 1 -1 1h-5a1.001 1.001 0 0 1 -1-1zm0 4v-1h7v1a1.001 1.001 0 0 1 -1 1h-5a1.001 1.001 0 0 1 -1-1zm0 4v-1h7v1a1.001 1.001 0 0 1 -1 1h-5a1.001 1.001 0 0 1 -1-1zm-8 1h-2.2793l-1.33349-4h3.61279zm-4.38733 0h-9.22534l1.33325-4h6.55884zm-11.61267-15a5.00588 5.00588 0 0 1 5-5h4a5.00588 5.00588 0 0 1 5 5v3h-14zm-2 5h18v4h-18zm0 6h3.61279l-1.33349 4h-2.2793zm-16 3v-6h8v6a1.001 1.001 0 0 1 -1 1h-6a1.001 1.001 0 0 1 -1-1zm-3 5v-2h4v2zm50 15a1.001 1.001 0 0 1 -1 1h-42a1.001 1.001 0 0 1 -1-1v-17h44zm2-15v-2h4l.00146 2z"/><path d="m12.832 10.94531-1-1.5-1.664 1.10938 1 1.5a.80392.80392 0 0 1 -.22266 1.11328 2.80572 2.80572 0 0 0 -.77734 3.88672l1 1.5 1.664-1.10938-1-1.5a.80392.80392 0 0 1 .22266-1.11328 2.80572 2.80572 0 0 0 .77734-3.88672z"/><path d="m17.832 10.94531-1-1.5-1.664 1.10938 1 1.5a.80392.80392 0 0 1 -.22266 1.11328 2.80572 2.80572 0 0 0 -.77734 3.88672l1 1.5 1.664-1.10938-1-1.5a.80392.80392 0 0 1 .22266-1.11328 2.80572 2.80572 0 0 0 .77734-3.88672z"/></svg>